<mxfile host="65bd71144e">
    <diagram id="DHuuKs_YCu5sUAfoRLq3" name="Page-1">
        <mxGraphModel dx="1382" dy="917" grid="1" gridSize="10" guides="1" tooltips="1" connect="1" arrows="1" fold="1" page="1" pageScale="1" pageWidth="1200" pageHeight="1920" math="0" shadow="0">
            <root>
                <mxCell id="0"/>
                <mxCell id="1" parent="0"/>
                <mxCell id="2" value="" style="swimlane;startSize=20;horizontal=0;childLayout=treeLayout;horizontalTree=1;resizable=0;containerType=tree;" vertex="1" parent="1">
                    <mxGeometry x="70" y="240" width="570" height="320" as="geometry"/>
                </mxCell>
                <mxCell id="3" value="Disk" style="whiteSpace=wrap;html=1;" vertex="1" parent="2">
                    <mxGeometry x="40" y="180" width="100" height="40" as="geometry"/>
                </mxCell>
                <mxCell id="4" value="&lt;b&gt;&lt;font color=&quot;#ffffff&quot;&gt;Boot disk&lt;/font&gt;&lt;/b&gt;" style="whiteSpace=wrap;html=1;fillColor=#999999;" vertex="1" parent="2">
                    <mxGeometry x="190" y="100" width="100" height="40" as="geometry"/>
                </mxCell>
                <mxCell id="5" value="" style="edgeStyle=elbowEdgeStyle;elbow=horizontal;html=1;rounded=0;" edge="1" parent="2" source="3" target="4">
                    <mxGeometry relative="1" as="geometry"/>
                </mxCell>
                <mxCell id="8" value="" style="edgeStyle=elbowEdgeStyle;elbow=horizontal;html=1;rounded=0;" edge="1" target="9" source="4" parent="2">
                    <mxGeometry relative="1" as="geometry">
                        <mxPoint x="210" y="40" as="sourcePoint"/>
                    </mxGeometry>
                </mxCell>
                <mxCell id="9" value="&lt;b&gt;&lt;font color=&quot;#ffffff&quot;&gt;VM comes with a single root persistent disk&lt;/font&gt;&lt;/b&gt;" style="whiteSpace=wrap;html=1;fillColor=#999999;" vertex="1" parent="2">
                    <mxGeometry x="340" y="20" width="210" height="40" as="geometry"/>
                </mxCell>
                <mxCell id="10" value="" style="edgeStyle=elbowEdgeStyle;elbow=horizontal;html=1;rounded=0;" edge="1" target="11" source="4" parent="2">
                    <mxGeometry relative="1" as="geometry">
                        <mxPoint x="360" as="sourcePoint"/>
                    </mxGeometry>
                </mxCell>
                <mxCell id="11" value="&lt;b&gt;&lt;font color=&quot;#ffffff&quot;&gt;image is loaded onto root disk during first boot&lt;/font&gt;&lt;/b&gt;" style="whiteSpace=wrap;html=1;fillColor=#999999;" vertex="1" parent="2">
                    <mxGeometry x="340" y="100" width="210" height="40" as="geometry"/>
                </mxCell>
                <mxCell id="12" value="" style="edgeStyle=elbowEdgeStyle;elbow=horizontal;html=1;rounded=0;" edge="1" target="13" source="4" parent="2">
                    <mxGeometry relative="1" as="geometry">
                        <mxPoint x="360" y="80" as="sourcePoint"/>
                    </mxGeometry>
                </mxCell>
                <mxCell id="13" value="&lt;b&gt;&lt;font color=&quot;#ffffff&quot;&gt;Same OS images are customized for compute engine&lt;/font&gt;&lt;/b&gt;" style="whiteSpace=wrap;html=1;fillColor=#999999;" vertex="1" parent="2">
                    <mxGeometry x="340" y="180" width="210" height="40" as="geometry"/>
                </mxCell>
                <mxCell id="14" value="" style="edgeStyle=elbowEdgeStyle;elbow=horizontal;html=1;rounded=0;" edge="1" target="15" source="3" parent="2">
                    <mxGeometry relative="1" as="geometry">
                        <mxPoint x="210" y="288" as="sourcePoint"/>
                    </mxGeometry>
                </mxCell>
                <mxCell id="15" value="&lt;b&gt;&lt;font color=&quot;#ffffff&quot;&gt;Persistant disks&lt;/font&gt;&lt;/b&gt;" style="whiteSpace=wrap;html=1;fillColor=#999999;" vertex="1" parent="2">
                    <mxGeometry x="190" y="260" width="100" height="40" as="geometry"/>
                </mxCell>
                <mxCell id="16" value="" style="edgeStyle=elbowEdgeStyle;elbow=horizontal;html=1;rounded=0;" edge="1" target="17" source="15" parent="2">
                    <mxGeometry relative="1" as="geometry">
                        <mxPoint x="210" y="440" as="sourcePoint"/>
                    </mxGeometry>
                </mxCell>
                <mxCell id="17" value="&lt;b&gt;&lt;font color=&quot;#ffffff&quot;&gt;Persistant disks&lt;/font&gt;&lt;/b&gt;" style="whiteSpace=wrap;html=1;fillColor=#999999;" vertex="1" parent="2">
                    <mxGeometry x="340" y="260" width="210" height="40" as="geometry"/>
                </mxCell>
            </root>
        </mxGraphModel>
    </diagram>
</mxfile>